<svg version="1.1" id="Layer_1" xmlns="http://www.w3.org/2000/svg" xmlns:xlink="http://www.w3.org/1999/xlink" x="0px" y="0px"
	 width="100%" viewBox="0 0 526 252" enable-background="new 0 0 526 252" xml:space="preserve">
<path fill="#000001" opacity="1.000000" stroke="none" 
	d="
M311.000000,253.000000 
	C207.366470,253.000000 104.232956,253.000000 1.049716,253.000000 
	C1.049716,169.060150 1.049716,85.120277 1.049716,1.090196 
	C176.216843,1.090196 351.433746,1.090196 526.825317,1.090196 
	C526.825317,84.999718 526.825317,168.999817 526.825317,253.000000 
	C455.120331,253.000000 383.310150,253.000000 311.000000,253.000000 
M104.318970,138.193054 
	C103.910988,136.117386 103.503006,134.041718 103.314178,131.091736 
	C103.240135,128.396011 103.166100,125.700294 103.315002,122.168633 
	C102.574074,119.114014 101.833145,116.059387 101.316086,112.135071 
	C100.907829,108.767700 100.499580,105.400330 100.321732,101.363029 
	C100.228668,97.903732 100.135612,94.444443 99.918892,90.165085 
	C99.743408,89.376747 99.466217,88.595688 99.409172,87.798874 
	C99.073288,83.107101 96.529877,79.637436 92.745987,77.371841 
	C89.382164,75.357758 86.342575,76.839272 83.505577,79.381714 
	C82.509895,80.274017 80.338562,80.217842 78.769302,80.034973 
	C74.883224,79.582153 72.903221,81.594040 71.772751,84.884697 
	C71.084053,86.889420 70.557739,88.949921 69.645058,91.674156 
	C69.066055,95.107475 68.487045,98.540794 67.655762,102.696068 
	C66.740791,106.131973 65.825821,109.567886 64.665894,113.843353 
	C64.414566,117.230011 64.163239,120.616669 63.638702,124.758484 
	C63.287884,127.122276 62.937065,129.486069 61.897907,132.379562 
	C61.897747,136.257904 61.897583,140.136246 62.031734,144.888382 
	C62.230289,146.843109 62.312332,148.818161 62.649475,150.748688 
	C63.621490,156.314621 65.643105,156.693634 70.811272,154.580124 
	C76.334747,152.321320 75.337929,148.016891 76.291977,143.423737 
	C77.548439,141.688736 78.674187,138.622421 80.087372,138.483673 
	C83.490028,138.149567 85.080650,136.031006 87.609451,134.043686 
	C88.009949,134.181671 88.410454,134.319641 89.083961,135.025696 
	C89.665993,136.334686 90.248016,137.643661 90.581436,139.497742 
	C90.997780,141.336487 91.414124,143.175217 91.953125,145.828049 
	C92.476082,148.048203 93.138237,150.246506 93.490646,152.493408 
	C94.075615,156.223099 96.778145,157.879623 99.779274,157.113647 
	C101.644119,156.637695 103.509232,153.952332 104.237244,151.862518 
	C104.946571,149.826355 104.208328,147.285919 104.312561,144.132217 
	C104.240059,142.422028 104.167549,140.711838 104.318970,138.193054 
M203.127625,146.805328 
	C201.014023,154.058640 209.029617,153.781357 210.923538,157.999405 
	C215.233749,154.694839 215.792252,150.562988 215.071671,145.139648 
	C215.439041,142.115967 215.806412,139.092270 216.871719,135.570084 
	C216.875473,131.710022 216.879211,127.849968 217.032822,123.116852 
	C217.750397,119.442169 218.467972,115.767494 219.894394,111.715485 
	C220.223297,108.141922 220.552200,104.568352 221.039383,100.106361 
	C220.987900,97.402840 220.936417,94.699318 221.044861,91.154488 
	C220.329346,87.670982 220.067581,84.004967 218.761887,80.758858 
	C217.615219,77.908157 215.109940,76.354019 211.484436,77.329147 
	C208.975998,78.003807 206.241043,78.127205 203.622772,78.038872 
	C198.900620,77.879570 195.636810,79.489326 194.521790,84.354576 
	C194.014053,86.569977 193.538620,88.792786 192.364685,91.449959 
	C192.264069,93.642349 192.163452,95.834740 191.375687,98.413963 
	C190.270889,98.549927 189.166077,98.685890 187.801483,98.185249 
	C186.606110,95.760788 185.410736,93.336334 184.171112,90.078384 
	C182.808365,86.550301 182.109772,82.465706 179.810822,79.722115 
	C178.608948,78.287796 174.589294,79.269150 171.852264,79.040108 
	C170.742508,78.947243 169.667618,78.494286 168.562683,78.277557 
	C162.911987,77.169197 157.224243,81.812500 157.235214,87.541039 
	C157.238052,89.018784 157.379425,90.496269 157.268585,92.776154 
	C157.666077,95.517761 158.063568,98.259377 158.260132,101.880714 
	C158.328857,104.578423 158.397598,107.276123 158.235672,110.748077 
	C157.975876,112.830887 157.716064,114.913696 157.256836,117.793915 
	C158.204865,120.517960 159.152893,123.242012 160.199646,126.799881 
	C160.622742,129.858643 161.045853,132.917389 161.266861,136.866013 
	C161.321747,139.892700 161.376633,142.919388 161.253540,146.670792 
	C161.876038,148.339355 162.097839,150.378021 163.216110,151.588638 
	C164.842575,153.349411 167.159485,155.729614 169.102219,155.658752 
	C172.357788,155.540024 172.368179,152.171585 172.213135,149.444122 
	C172.147690,148.293060 172.054657,147.143570 172.330185,145.352097 
	C173.869186,142.233643 175.408203,139.115189 177.119720,135.173843 
	C177.168762,132.086700 177.217804,128.999542 177.181992,125.110725 
	C176.440048,122.406555 175.698105,119.702377 175.133484,116.136147 
	C175.071838,114.089630 175.010193,112.043106 175.122833,109.251450 
	C175.340378,108.178886 175.557938,107.106323 175.775482,106.033760 
	C176.128098,106.047409 176.480728,106.061066 176.833359,106.074715 
	C177.349747,107.708427 177.866150,109.342148 178.186569,111.759193 
	C179.252335,115.501900 180.318100,119.244606 181.214233,123.694679 
	C182.267303,127.201317 183.320389,130.707962 184.250473,135.041458 
	C185.749115,137.668991 187.247757,140.296539 188.746368,142.924088 
	C189.804977,140.279373 190.863571,137.634674 192.313828,134.360870 
	C197.702927,131.900421 195.892563,127.159180 196.079605,122.164307 
	C196.799637,118.476891 197.519669,114.789467 198.849243,110.723427 
	C199.176819,109.827126 199.504395,108.930824 200.306808,106.735237 
	C200.860245,109.059547 201.089111,110.020737 201.138351,111.803665 
	C201.416473,115.183243 201.694611,118.562828 201.332108,122.372253 
	C199.731445,127.137573 200.857437,131.709000 202.717270,137.058350 
	C202.913391,140.030289 203.109512,143.002243 203.127625,146.805328 
M301.753845,118.643768 
	C302.099396,116.425598 302.444946,114.207420 302.939087,111.211166 
	C302.889343,108.471130 302.839630,105.731087 302.938812,102.185043 
	C302.970306,99.452583 303.001801,96.720123 302.939606,93.245583 
	C302.291870,91.497398 301.644135,89.749222 300.731812,87.361908 
	C297.841064,84.038559 295.462524,79.582214 290.204437,80.200577 
	C285.476562,80.756577 281.440765,79.629623 277.457764,77.327545 
	C276.303253,76.660248 274.398346,75.975471 273.457092,76.472404 
	C268.086060,79.308151 261.755127,81.392273 261.053802,89.843025 
	C261.106079,91.560043 261.158356,93.277061 261.051453,95.856247 
	C261.022034,97.900482 260.992615,99.944725 260.283173,102.417847 
	C259.924652,105.609016 259.566132,108.800194 259.254059,112.697968 
	C260.557251,115.796501 261.860413,118.895035 263.015900,122.900795 
	C263.013245,125.724152 262.856476,128.560593 263.094391,131.363525 
	C263.173981,132.301361 264.261139,133.153687 264.977905,134.880493 
	C264.706726,137.916718 264.435547,140.952942 264.057556,144.816956 
	C264.372589,147.231216 264.367615,149.749084 265.105072,152.026550 
	C265.682465,153.809677 266.933075,156.298203 268.334656,156.642868 
	C269.872131,157.020935 272.866577,155.776855 273.565155,154.398087 
	C275.186646,151.197693 275.808228,147.490677 276.966431,143.183426 
	C277.383728,141.106277 277.801025,139.029144 278.301849,136.536392 
	C279.489685,137.309601 280.097626,137.479874 280.256348,137.845276 
	C281.280090,140.201981 282.205658,142.601334 283.039307,145.720139 
	C283.820618,146.719376 284.448364,147.911011 285.412750,148.680908 
	C288.043976,150.781479 290.817322,152.704041 293.534363,154.697128 
	C299.579926,156.091385 301.788147,153.174118 298.910339,147.424576 
	C298.244598,146.094528 296.859192,145.124680 295.932831,143.153061 
	C294.979858,139.760559 294.026886,136.368042 292.973511,132.260605 
	C290.960541,127.957809 296.350708,128.523743 297.709045,125.743912 
	C298.839752,123.508202 299.970428,121.272484 301.753845,118.643768 
M462.066284,138.814148 
	C462.436340,136.195541 462.806366,133.576935 463.412994,130.163849 
	C462.013428,127.313507 460.613861,124.463181 458.900238,121.024055 
	C457.240936,118.945885 455.581604,116.867706 454.519531,114.469162 
	C456.406158,110.629692 458.292786,106.790215 460.423370,102.125320 
	C460.106201,99.701813 459.789032,97.278305 459.482208,94.070366 
	C457.643250,91.416557 455.804291,88.762741 453.598083,85.483994 
	C451.408447,78.090866 448.394196,76.577629 440.832977,76.944077 
	C432.748688,77.335884 427.584473,81.395012 423.072021,88.200165 
	C422.054169,90.466125 421.036346,92.732094 419.752350,95.841499 
	C420.453094,98.692444 421.153839,101.543396 422.381104,104.920662 
	C424.654755,105.670952 426.894287,106.563713 429.214569,107.119316 
	C430.660126,107.465477 432.290161,107.599495 433.725952,107.298012 
	C435.913513,106.838676 438.004547,105.919594 440.136566,105.195740 
	C440.528473,107.492363 440.920349,109.788979 440.750885,112.510017 
	C438.776672,114.310982 436.764893,116.072884 434.839508,117.924622 
	C433.145447,119.553902 431.548035,121.283691 429.665833,123.550194 
	C431.158752,130.517990 434.035461,132.130905 440.632538,130.640839 
	C442.671875,130.180222 445.109283,131.482086 447.542206,132.795456 
	C447.158752,135.197510 446.775299,137.599564 445.802612,140.326874 
	C444.456848,141.756378 443.111115,143.185883 440.947357,144.807449 
	C437.114380,146.071747 434.454651,144.412491 431.704102,141.805588 
	C430.544342,140.706375 427.503021,140.221313 426.231445,140.983246 
	C424.864014,141.802612 423.639130,144.598465 423.961761,146.209534 
	C425.685120,154.814819 438.382141,159.805756 445.863434,155.220062 
	C447.613281,154.147461 449.708618,153.227905 451.714111,153.059021 
	C458.020416,152.527954 459.097290,151.636505 460.312592,144.421112 
	C460.710693,142.671143 461.108826,140.921158 462.066284,138.814148 
M320.654510,148.693451 
	C322.033478,145.124329 323.412445,141.555206 325.190277,137.333908 
	C328.613495,135.417496 331.759094,134.991776 334.190094,139.788788 
	C334.484283,146.256531 337.132446,151.572144 341.894714,156.186676 
	C347.739044,151.473618 347.953094,145.302841 347.840515,138.122452 
	C348.121368,133.744858 348.402222,129.367279 348.846100,124.139786 
	C348.459137,120.756409 348.072174,117.373032 347.818237,113.227173 
	C346.750732,109.776421 345.683228,106.325668 344.289795,102.065849 
	C344.421356,99.039185 344.552917,96.012520 344.853119,92.115807 
	C345.776306,82.379272 342.582611,79.610703 337.584961,78.591499 
	C332.637146,77.582451 327.492432,77.478050 322.422150,77.181129 
	C321.405182,77.121582 319.718353,77.710091 319.387878,78.460861 
	C317.140808,83.565872 315.174408,88.794388 312.935516,94.757599 
	C312.330353,97.503464 311.725189,100.249329 310.713959,103.735580 
	C310.516296,107.154335 310.318634,110.573090 309.930786,114.785065 
	C309.335175,118.187157 308.739563,121.589249 307.985748,125.897858 
	C308.886658,130.336929 305.529755,135.720078 310.922852,140.049896 
	C310.985870,143.029068 311.048920,146.008255 310.947174,149.784531 
	C311.061584,152.638550 311.250031,155.469864 314.959198,155.959259 
	C318.580994,156.437134 318.503326,153.469315 319.240906,151.273773 
	C319.495422,150.516220 319.763763,149.763321 320.654510,148.693451 
M249.002731,130.114944 
	C249.022873,127.455009 249.043015,124.795067 249.747208,121.721008 
	C249.783371,118.144463 249.819519,114.567924 249.997284,110.172112 
	C249.617126,107.446487 249.236969,104.720863 249.009064,101.255539 
	C249.929916,100.101509 250.910873,98.989601 251.756592,97.782921 
	C252.847672,96.226196 253.830582,94.593636 255.008698,92.128975 
	C254.960602,90.085693 254.912491,88.042412 255.017990,85.168701 
	C255.006714,77.622856 253.524780,75.958900 246.290390,76.132347 
	C240.548889,76.270004 234.803635,76.633118 229.085251,77.166397 
	C226.752335,77.383957 224.626434,78.299248 225.751938,81.588707 
	C226.219528,82.955284 226.103226,84.521645 226.089691,86.853485 
	C225.836380,88.837318 225.583054,90.821144 225.097473,93.506470 
	C224.865158,96.028954 225.089813,97.856400 228.441925,98.270676 
	C229.847504,98.444374 230.997269,100.688164 232.095749,102.878677 
	C232.150681,105.581688 232.205612,108.284698 232.090393,111.825424 
	C232.479477,114.880127 232.868576,117.934822 233.089722,121.794800 
	C233.146255,124.859871 233.202789,127.924934 233.380081,131.758286 
	C233.217957,135.158356 233.055817,138.558441 232.167221,142.003357 
	C227.875137,145.232849 226.511276,149.924973 229.318817,154.166504 
	C231.896240,158.060333 235.499802,157.388016 239.289719,155.443420 
	C240.831177,154.652496 243.061539,154.549515 244.801758,154.933746 
	C248.703415,155.795197 250.960419,154.011673 251.598480,150.654587 
	C252.179001,147.600281 253.770813,143.756790 249.047440,141.201126 
	C248.984467,137.798828 248.921494,134.396515 249.002731,130.114944 
M357.043732,126.701218 
	C357.377258,130.133224 357.710785,133.565231 357.863281,137.826508 
	C357.585571,140.550003 357.307861,143.273499 356.622528,146.635300 
	C355.462189,152.758347 358.552490,156.294113 364.091553,154.716461 
	C368.730011,153.395279 372.901459,152.368622 377.816467,154.566559 
	C379.985931,155.536743 383.903748,154.001892 386.281464,152.456207 
	C387.329132,151.775146 386.516785,148.232819 386.726471,145.160919 
	C386.821960,138.674271 386.859314,138.957428 380.397064,139.810028 
	C377.341095,140.213226 373.396088,141.429596 372.023926,136.290085 
	C371.557068,132.519318 371.090240,128.748566 370.791443,124.134140 
	C371.067993,120.749931 371.344574,117.365723 371.802765,113.154846 
	C372.074158,109.762009 372.345581,106.369171 372.792847,102.085991 
	C372.858337,99.055428 372.923798,96.024857 373.660980,92.560112 
	C374.008575,90.803520 374.855804,88.969803 374.599060,87.306488 
	C374.076294,83.919777 373.580963,78.174240 371.965363,77.763603 
	C367.569000,76.646156 362.532959,77.454010 357.890869,78.284142 
	C356.629150,78.509758 355.158264,81.469833 355.034210,83.261513 
	C354.835205,86.135147 355.679077,89.081009 355.903290,92.898064 
	C355.962860,96.263290 356.022430,99.628517 355.900574,103.855400 
	C356.282501,107.235603 356.664398,110.615814 356.665588,114.651199 
	C353.207031,118.552246 355.636566,122.255913 357.043732,126.701218 
M112.447479,125.849770 
	C112.535271,129.226486 112.623055,132.603210 112.429619,136.745834 
	C113.348053,140.144547 114.266479,143.543274 115.311775,147.823868 
	C115.329338,149.651230 115.362076,151.478592 115.361328,153.305954 
	C115.359726,157.241821 118.649681,158.732071 121.018303,157.714157 
	C127.170067,155.070480 135.330597,155.188614 138.394821,146.435272 
	C140.702881,143.663620 143.010956,140.891968 145.920273,137.737137 
	C147.278564,133.823822 148.636856,129.910492 150.210876,125.194862 
	C150.471085,120.796043 150.731293,116.397232 151.174088,111.219612 
	C150.113678,107.812859 149.053268,104.406097 148.134949,100.209648 
	C147.180405,97.110786 146.225845,94.011917 145.182999,90.429855 
	C145.182999,90.429855 144.953186,89.995720 144.998856,89.405312 
	C144.667435,89.276680 144.336029,89.148056 143.438950,88.610016 
	C141.743286,86.773140 140.384186,84.110878 138.288040,83.256111 
	C132.303467,80.815689 126.099312,78.783852 119.821564,77.242989 
	C116.287415,76.375534 112.994118,78.440285 112.182831,81.995010 
	C111.462471,85.151360 112.111511,88.620232 112.287834,92.836281 
	C112.269089,94.921692 112.250343,97.007095 111.637314,99.555634 
	C110.995956,103.688026 110.354591,107.820419 109.445267,112.633308 
	C112.197723,116.302826 113.662636,120.314484 112.447479,125.849770 
M413.598511,112.239029 
	C413.220886,108.817726 412.843231,105.396423 412.954010,101.289619 
	C413.109497,98.183281 413.264984,95.076942 413.717651,91.178650 
	C414.046722,87.767815 414.639862,84.349174 414.539307,80.951073 
	C414.510223,79.968582 412.422302,78.153740 411.391174,78.230835 
	C399.684753,79.106071 394.497406,77.748657 389.078644,92.239899 
	C385.402313,97.757759 385.542023,98.077675 391.488281,100.467453 
	C392.781281,100.987106 393.818176,102.144028 395.095093,103.822670 
	C395.398682,107.214653 395.702240,110.606628 395.793488,114.709854 
	C396.095245,118.511726 396.397003,122.313599 396.752045,127.002350 
	C396.724609,129.966736 396.697174,132.931137 396.082336,136.206924 
	C393.251251,139.248550 390.189392,142.202759 391.806000,147.855301 
	C391.818115,149.514999 391.555939,151.233826 391.898407,152.822296 
	C392.650269,156.309692 394.659058,157.563171 398.437866,156.713913 
	C401.792572,155.959930 405.381226,155.780182 408.823517,156.005402 
	C412.785217,156.264618 414.881165,155.086563 414.707520,150.926270 
	C414.652435,149.606934 414.520081,148.290817 414.870453,146.310226 
	C416.795715,142.023727 416.063110,138.518814 411.722839,135.127853 
	C411.616943,132.075241 411.511078,129.022629 411.646606,125.193192 
	C412.232910,121.123550 412.819214,117.053902 413.598511,112.239029 
z"/>
<path fill="#70C0DF" opacity="1.000000" stroke="none" 
	d="
M201.317978,110.981926 
	C201.089111,110.020737 200.860245,109.059547 200.306808,106.735237 
	C199.504395,108.930824 199.176819,109.827126 198.061279,110.891106 
	C190.976395,111.031143 184.679474,111.003502 178.382538,110.975861 
	C177.866150,109.342148 177.349747,107.708427 176.833359,106.074715 
	C176.480728,106.061066 176.128098,106.047409 175.775482,106.033760 
	C175.557938,107.106323 175.340378,108.178886 174.572296,109.625694 
	C168.836609,109.991234 163.651459,109.982529 158.466324,109.973831 
	C158.397598,107.276123 158.328857,104.578423 158.799683,101.439644 
	C167.273224,100.998795 175.210571,101.120590 183.138443,100.900459 
	C184.797348,100.854401 186.421249,99.547653 188.061279,98.821861 
	C189.166077,98.685890 190.270889,98.549927 191.978821,98.452728 
	C194.346024,99.281586 196.086441,100.686195 197.878265,100.755142 
	C205.537598,101.049881 213.212128,100.950447 220.881104,100.994781 
	C220.552200,104.568352 220.223297,108.141922 219.145767,111.732941 
	C212.704086,111.494247 207.011032,111.238091 201.317978,110.981926 
z"/>
<path fill="#53B0D4" opacity="1.000000" stroke="none" 
	d="
M310.926788,139.162247 
	C305.529755,135.720078 308.886658,130.336929 308.523071,125.447006 
	C312.497681,124.997597 315.951416,125.200417 319.365845,124.921486 
	C321.273804,124.765625 323.116425,123.809998 325.363251,123.284630 
	C327.471588,123.513000 329.205170,123.671501 331.263794,124.097794 
	C337.286896,124.573616 342.984985,124.781647 348.683044,124.989685 
	C348.402222,129.367279 348.121368,133.744858 347.320282,138.549683 
	C342.560303,138.981186 338.320526,138.985458 334.080780,138.989746 
	C331.759094,134.991776 328.613495,135.417496 324.540466,137.662018 
	C319.569336,138.380844 315.248077,138.771545 310.926788,139.162247 
z"/>
<path fill="#83C9E4" opacity="1.000000" stroke="none" 
	d="
M313.117371,93.983017 
	C315.174408,88.794388 317.140808,83.565872 319.387878,78.460861 
	C319.718353,77.710091 321.405182,77.121582 322.422150,77.181129 
	C327.492432,77.478050 332.637146,77.582451 337.584961,78.591499 
	C342.582611,79.610703 345.776306,82.379272 344.320679,92.551720 
	C333.564575,93.319427 323.340973,93.651215 313.117371,93.983017 
z"/>
<path fill="#6FBEDD" opacity="1.000000" stroke="none" 
	d="
M147.992859,100.999344 
	C149.053268,104.406097 150.113678,107.812859 150.620499,111.610733 
	C145.104248,112.320892 140.141571,112.639938 134.879730,112.772324 
	C132.359024,109.782181 130.137497,106.978706 127.915977,104.175224 
	C127.480751,104.410568 127.045525,104.645920 126.610298,104.881264 
	C126.413132,107.254463 126.215958,109.627663 125.551270,112.003204 
	C119.960236,111.987968 114.836739,111.970390 109.713234,111.952812 
	C110.354591,107.820419 110.995956,103.688026 112.199562,99.585571 
	C114.603500,100.078171 116.440201,100.916344 118.287704,100.940857 
	C128.187943,101.072197 138.090866,101.000732 147.992859,100.999344 
z"/>
<path fill="#56B2D7" opacity="1.000000" stroke="none" 
	d="
M88.810959,134.457611 
	C88.410454,134.319641 88.009949,134.181671 86.953438,133.766998 
	C83.492081,133.327072 80.684677,133.192856 77.881844,132.994293 
	C72.781883,132.632965 67.684624,132.233429 62.586243,131.849854 
	C62.937065,129.486069 63.287884,127.122276 64.247543,124.380051 
	C69.623207,123.537872 74.390022,123.074135 79.527969,122.591957 
	C81.884323,122.262314 83.869537,121.951118 86.169235,121.935020 
	C92.019829,122.488266 97.555939,122.746422 103.092056,123.004578 
	C103.166100,125.700294 103.240135,128.396011 102.816879,131.693756 
	C100.415489,132.530670 98.501503,132.705139 96.609703,133.015045 
	C94.001343,133.442337 91.409744,133.971878 88.810959,134.457611 
z"/>
<path fill="#3DA2CA" opacity="1.000000" stroke="none" 
	d="
M459.809082,145.030777 
	C459.097290,151.636505 458.020416,152.527954 451.714111,153.059021 
	C449.708618,153.227905 447.613281,154.147461 445.863434,155.220062 
	C438.382141,159.805756 425.685120,154.814819 423.961761,146.209534 
	C423.639130,144.598465 424.864014,141.802612 426.231445,140.983246 
	C427.503021,140.221313 430.544342,140.706375 431.704102,141.805588 
	C434.454651,144.412491 437.114380,146.071747 441.679688,145.007874 
	C448.211060,145.149124 454.010071,145.089951 459.809082,145.030777 
z"/>
<path fill="#83C9E4" opacity="1.000000" stroke="none" 
	d="
M193.048538,91.012238 
	C193.538620,88.792786 194.014053,86.569977 194.521790,84.354576 
	C195.636810,79.489326 198.900620,77.879570 203.622772,78.038872 
	C206.241043,78.127205 208.975998,78.003807 211.484436,77.329147 
	C215.109940,76.354019 217.615219,77.908157 218.761887,80.758858 
	C220.067581,84.004967 220.329346,87.670982 220.503586,91.576584 
	C210.991058,91.669861 202.019791,91.341049 193.048538,91.012238 
z"/>
<path fill="#85C9E5" opacity="1.000000" stroke="none" 
	d="
M144.953186,89.995720 
	C144.953186,89.995720 145.182999,90.429855 144.741379,90.692307 
	C133.585205,91.286880 122.870651,91.619019 112.156097,91.951157 
	C112.111511,88.620232 111.462471,85.151360 112.182831,81.995010 
	C112.994118,78.440285 116.287415,76.375534 119.821564,77.242989 
	C126.099312,78.783852 132.303467,80.815689 138.288040,83.256111 
	C140.384186,84.110878 141.743286,86.773140 143.847214,89.007172 
	C144.450363,89.645920 144.682922,89.843048 144.953186,89.995720 
z"/>
<path fill="#7AC5E3" opacity="1.000000" stroke="none" 
	d="
M67.908035,101.974113 
	C68.487045,98.540794 69.066055,95.107475 70.273079,91.332687 
	C80.614922,90.989197 90.328735,90.987175 100.042557,90.985146 
	C100.135612,94.444443 100.228668,97.903732 99.732285,101.690384 
	C94.939644,102.078697 90.736450,102.139656 86.243683,102.050064 
	C84.344917,101.936325 82.735718,101.973137 80.654465,102.007744 
	C76.090950,101.995064 71.999489,101.984589 67.908035,101.974113 
z"/>
<path fill="#78C4E1" opacity="1.000000" stroke="none" 
	d="
M112.221970,92.393723 
	C122.870651,91.619019 133.585205,91.286880 144.785522,90.933899 
	C146.225845,94.011917 147.180405,97.110786 148.063904,100.604492 
	C138.090866,101.000732 128.187943,101.072197 118.287704,100.940857 
	C116.440201,100.916344 114.603500,100.078171 112.496704,99.354004 
	C112.250343,97.007095 112.269089,94.921692 112.221970,92.393723 
z"/>
<path fill="#85C9E5" opacity="1.000000" stroke="none" 
	d="
M261.209595,88.996513 
	C261.755127,81.392273 268.086060,79.308151 273.457092,76.472404 
	C274.398346,75.975471 276.303253,76.660248 277.457764,77.327545 
	C281.440765,79.629623 285.476562,80.756577 290.204437,80.200577 
	C295.462524,79.582214 297.841064,84.038559 300.400024,87.680664 
	C287.115326,88.331787 274.162476,88.664146 261.209595,88.996513 
z"/>
<path fill="#85C9E5" opacity="1.000000" stroke="none" 
	d="
M99.980728,90.575119 
	C90.328735,90.987175 80.614922,90.989197 70.429794,90.988297 
	C70.557739,88.949921 71.084053,86.889420 71.772751,84.884697 
	C72.903221,81.594040 74.883224,79.582153 78.769302,80.034973 
	C80.338562,80.217842 82.509895,80.274017 83.505577,79.381714 
	C86.342575,76.839272 89.382164,75.357758 92.745987,77.371841 
	C96.529877,79.637436 99.073288,83.107101 99.409172,87.798874 
	C99.466217,88.595688 99.743408,89.376747 99.980728,90.575119 
z"/>
<path fill="#85C9E5" opacity="1.000000" stroke="none" 
	d="
M157.457169,91.973869 
	C157.379425,90.496269 157.238052,89.018784 157.235214,87.541039 
	C157.224243,81.812500 162.911987,77.169197 168.562683,78.277557 
	C169.667618,78.494286 170.742508,78.947243 171.852264,79.040108 
	C174.589294,79.269150 178.608948,78.287796 179.810822,79.722115 
	C182.109772,82.465706 182.808365,86.550301 183.796173,90.665573 
	C174.766541,91.493134 166.111847,91.733505 157.457169,91.973869 
z"/>
<path fill="#78C4E1" opacity="1.000000" stroke="none" 
	d="
M313.026428,94.370300 
	C323.340973,93.651215 333.564575,93.319427 344.236328,92.986740 
	C344.552917,96.012520 344.421356,99.039185 344.002808,102.546280 
	C339.184662,103.348099 334.653503,103.669487 330.032593,103.642273 
	C329.257263,102.482147 328.571716,101.670631 327.398346,100.281677 
	C327.055756,102.182121 326.892883,103.085632 326.328064,103.958038 
	C320.990753,103.616348 316.055420,103.305771 311.120056,102.995186 
	C311.725189,100.249329 312.330353,97.503464 313.026428,94.370300 
z"/>
<path fill="#78C4E1" opacity="1.000000" stroke="none" 
	d="
M421.854553,104.394341 
	C421.153839,101.543396 420.453094,98.692444 420.352875,95.419296 
	C433.792877,94.949669 446.632385,94.902237 459.471863,94.854797 
	C459.789032,97.278305 460.106201,99.701813 459.821350,102.550705 
	C448.619904,102.985580 438.019623,102.928917 427.421875,103.066864 
	C425.560638,103.091087 423.710083,103.931084 421.854553,104.394341 
z"/>
<path fill="#78C4E1" opacity="1.000000" stroke="none" 
	d="
M303.033325,93.987671 
	C303.001801,96.720123 302.970306,99.452583 302.410095,102.589157 
	C296.850677,103.020241 291.819946,103.047211 286.482117,102.861572 
	C284.629883,101.505127 283.144836,99.606079 281.519012,99.476799 
	C280.391602,99.387154 279.070343,101.734947 277.379517,102.995476 
	C271.603271,102.661156 266.283264,102.325058 260.963226,101.988953 
	C260.992615,99.944725 261.022034,97.900482 261.586304,95.425644 
	C273.667664,94.996788 285.214539,95.048363 296.760284,94.954597 
	C298.853760,94.937607 300.942413,94.325203 303.033325,93.987671 
z"/>
<path fill="#4BACD2" opacity="1.000000" stroke="none" 
	d="
M283.163422,144.986694 
	C282.205658,142.601334 281.280090,140.201981 280.256348,137.845276 
	C280.097626,137.479874 279.489685,137.309601 278.301849,136.536392 
	C277.801025,139.029144 277.383728,141.106277 276.449890,143.589157 
	C272.010345,143.992981 268.087372,143.991074 264.164368,143.989166 
	C264.435547,140.952942 264.706726,137.916718 265.350281,134.379639 
	C274.839722,133.577713 283.956818,133.276627 293.073914,132.975540 
	C294.026886,136.368042 294.979858,139.760559 295.430176,143.572479 
	C291.006134,144.323502 287.084778,144.655090 283.163422,144.986694 
z"/>
<path fill="#3FA4CC" opacity="1.000000" stroke="none" 
	d="
M249.173691,141.933716 
	C253.770813,143.756790 252.179001,147.600281 251.598480,150.654587 
	C250.960419,154.011673 248.703415,155.795197 244.801758,154.933746 
	C243.061539,154.549515 240.831177,154.652496 239.289719,155.443420 
	C235.499802,157.388016 231.896240,158.060333 229.318817,154.166504 
	C226.511276,149.924973 227.875137,145.232849 233.004364,141.988007 
	C238.952240,141.959671 244.062973,141.946686 249.173691,141.933716 
z"/>
<path fill="#56B2D7" opacity="1.000000" stroke="none" 
	d="
M293.023712,132.618073 
	C283.956818,133.276627 274.839722,133.577713 265.305176,133.961945 
	C264.261139,133.153687 263.173981,132.301361 263.094391,131.363525 
	C262.856476,128.560593 263.013245,125.724152 263.545532,122.449226 
	C268.995575,121.996185 273.915985,121.994705 278.917786,122.359375 
	C279.984833,123.111900 280.970428,123.498291 282.282410,124.141396 
	C287.431305,124.939415 292.253815,125.480713 297.076355,126.022018 
	C296.350708,128.523743 290.960541,127.957809 293.023712,132.618073 
z"/>
<path fill="#45A4C9" opacity="1.000000" stroke="none" 
	d="
M145.319031,138.120316 
	C143.010956,140.891968 140.702881,143.663620 137.745804,146.719299 
	C129.792831,146.982895 122.488869,146.962433 115.184906,146.941986 
	C114.266479,143.543274 113.348053,140.144547 112.988220,136.369965 
	C117.704407,135.996155 121.861992,135.998184 126.135849,136.302963 
	C127.230713,136.748383 128.209305,136.891068 129.580795,137.027618 
	C135.088821,137.387772 140.203918,137.754044 145.319031,138.120316 
z"/>
<path fill="#82C6E1" opacity="1.000000" stroke="none" 
	d="
M389.726837,91.905746 
	C394.497406,77.748657 399.684753,79.106071 411.391174,78.230835 
	C412.422302,78.153740 414.510223,79.968582 414.539307,80.951073 
	C414.639862,84.349174 414.046722,87.767815 413.137939,91.581924 
	C404.947754,91.958717 397.337280,91.932228 389.726837,91.905746 
z"/>
<path fill="#83C9E4" opacity="1.000000" stroke="none" 
	d="
M356.082214,91.996346 
	C355.679077,89.081009 354.835205,86.135147 355.034210,83.261513 
	C355.158264,81.469833 356.629150,78.509758 357.890869,78.284142 
	C362.532959,77.454010 367.569000,76.646156 371.965363,77.763603 
	C373.580963,78.174240 374.076294,83.919777 374.599060,87.306488 
	C374.855804,88.969803 374.008575,90.803520 372.943573,92.612640 
	C366.844849,92.442223 361.463501,92.219284 356.082214,91.996346 
z"/>
<path fill="#85C9E5" opacity="1.000000" stroke="none" 
	d="
M226.252426,85.997154 
	C226.103226,84.521645 226.219528,82.955284 225.751938,81.588707 
	C224.626434,78.299248 226.752335,77.383957 229.085251,77.166397 
	C234.803635,76.633118 240.548889,76.270004 246.290390,76.132347 
	C253.524780,75.958900 255.006714,77.622856 254.481171,85.584320 
	C244.713699,85.999008 235.483063,85.998077 226.252426,85.997154 
z"/>
<path fill="#80C8E5" opacity="1.000000" stroke="none" 
	d="
M459.477051,94.462585 
	C446.632385,94.902237 433.792877,94.949669 420.485962,94.997581 
	C421.036346,92.732094 422.054169,90.466125 423.867798,88.068893 
	C432.651733,87.958221 440.642395,88.091805 448.626038,87.912758 
	C450.418396,87.872551 452.186218,86.739098 453.965332,86.108932 
	C455.804291,88.762741 457.643250,91.416557 459.477051,94.462585 
z"/>
<path fill="#79C1DE" opacity="1.000000" stroke="none" 
	d="
M157.362885,92.375015 
	C166.111847,91.733505 174.766541,91.493134 183.818298,91.082321 
	C185.410736,93.336334 186.606110,95.760788 187.931381,98.503555 
	C186.421249,99.547653 184.797348,100.854401 183.138443,100.900459 
	C175.210571,101.120590 167.273224,100.998795 158.900146,100.999779 
	C158.063568,98.259377 157.666077,95.517761 157.362885,92.375015 
z"/>
<path fill="#80C8E5" opacity="1.000000" stroke="none" 
	d="
M302.986450,93.616623 
	C300.942413,94.325203 298.853760,94.937607 296.760284,94.954597 
	C285.214539,95.048363 273.667664,94.996788 261.665894,94.994568 
	C261.158356,93.277061 261.106079,91.560043 261.131714,89.419769 
	C274.162476,88.664146 287.115326,88.331787 300.532288,88.000229 
	C301.644135,89.749222 302.291870,91.497398 302.986450,93.616623 
z"/>
<path fill="#85C9E5" opacity="1.000000" stroke="none" 
	d="
M453.781708,85.796463 
	C452.186218,86.739098 450.418396,87.872551 448.626038,87.912758 
	C440.642395,88.091805 432.651733,87.958221 424.175385,87.911957 
	C427.584473,81.395012 432.748688,77.335884 440.832977,76.944077 
	C448.394196,76.577629 451.408447,78.090866 453.781708,85.796463 
z"/>
<path fill="#56B2D7" opacity="1.000000" stroke="none" 
	d="
M459.214294,121.612839 
	C460.613861,124.463181 462.013428,127.313507 462.819458,130.571594 
	C457.272095,131.311905 452.318237,131.644440 447.364410,131.976990 
	C445.109283,131.482086 442.671875,130.180222 440.632538,130.640839 
	C434.035461,132.130905 431.158752,130.517990 430.261414,123.267311 
	C438.456604,122.989906 446.057892,123.084328 453.654541,122.937286 
	C455.515625,122.901260 457.361450,122.075508 459.214294,121.612839 
z"/>
<path fill="#79C1DE" opacity="1.000000" stroke="none" 
	d="
M389.402740,92.072815 
	C397.337280,91.932228 404.947754,91.958717 412.989349,91.977905 
	C413.264984,95.076942 413.109497,98.183281 412.277527,101.637436 
	C406.058350,102.325974 400.515686,102.666710 394.973022,103.007446 
	C393.818176,102.144028 392.781281,100.987106 391.488281,100.467453 
	C385.542023,98.077675 385.402313,97.757759 389.402740,92.072815 
z"/>
<path fill="#45A4C9" opacity="1.000000" stroke="none" 
	d="
M411.849609,136.037521 
	C416.063110,138.518814 416.795715,142.023727 414.216309,146.648499 
	C406.372681,146.991272 399.183167,146.995789 391.993683,147.000320 
	C390.189392,142.202759 393.251251,139.248550 396.862366,136.077927 
	C402.378143,135.978455 407.113892,136.007980 411.849609,136.037521 
z"/>
<path fill="#7AC5E3" opacity="1.000000" stroke="none" 
	d="
M192.706604,91.231094 
	C202.019791,91.341049 210.991058,91.669861 220.423615,91.997238 
	C220.936417,94.699318 220.987900,97.402840 220.960236,100.550568 
	C213.212128,100.950447 205.537598,101.049881 197.878265,100.755142 
	C196.086441,100.686195 194.346024,99.281586 192.322388,98.259308 
	C192.163452,95.834740 192.264069,93.642349 192.706604,91.231094 
z"/>
<path fill="#6DBBDA" opacity="1.000000" stroke="none" 
	d="
M422.117859,104.657501 
	C423.710083,103.931084 425.560638,103.091087 427.421875,103.066864 
	C438.019623,102.928917 448.619904,102.985580 459.699402,102.963409 
	C458.292786,106.790215 456.406158,110.629692 453.881805,114.434937 
	C449.266815,113.628998 445.289520,112.857300 441.312256,112.085602 
	C440.920349,109.788979 440.528473,107.492363 440.136566,105.195740 
	C438.004547,105.919594 435.913513,106.838676 433.725952,107.298012 
	C432.290161,107.599495 430.660126,107.465477 429.214569,107.119316 
	C426.894287,106.563713 424.654755,105.670952 422.117859,104.657501 
z"/>
<path fill="#3DA1C9" opacity="1.000000" stroke="none" 
	d="
M386.548920,145.989532 
	C386.516785,148.232819 387.329132,151.775146 386.281464,152.456207 
	C383.903748,154.001892 379.985931,155.536743 377.816467,154.566559 
	C372.901459,152.368622 368.730011,153.395279 364.091553,154.716461 
	C358.552490,156.294113 355.462189,152.758347 357.293030,146.318253 
	C367.491974,145.997314 377.020447,145.993423 386.548920,145.989532 
z"/>
<path fill="#46A8CF" opacity="1.000000" stroke="none" 
	d="
M386.637695,145.575226 
	C377.020447,145.993423 367.491974,145.997314 357.496826,145.999100 
	C357.307861,143.273499 357.585571,140.550003 358.412903,137.413422 
	C363.182922,136.997299 367.403290,136.994278 371.623688,136.991272 
	C373.396088,141.429596 377.341095,140.213226 380.397064,139.810028 
	C386.859314,138.957428 386.821960,138.674271 386.637695,145.575226 
z"/>
<path fill="#60B6D8" opacity="1.000000" stroke="none" 
	d="
M135.178909,112.958984 
	C140.141571,112.639938 145.104248,112.320892 150.529205,112.000137 
	C150.731293,116.397232 150.471085,120.796043 149.638794,125.598312 
	C143.778320,125.679489 138.489914,125.357216 133.265839,124.669846 
	C133.946411,120.522820 134.562653,116.740898 135.178909,112.958984 
z"/>
<path fill="#5FB4D5" opacity="1.000000" stroke="none" 
	d="
M396.698761,126.115471 
	C396.397003,122.313599 396.095245,118.511726 396.365234,114.355896 
	C402.426483,113.662704 407.915985,113.323479 413.405518,112.984253 
	C412.819214,117.053902 412.232910,121.123550 411.097351,125.588417 
	C405.931671,126.027580 401.315216,126.071526 396.698761,126.115471 
z"/>
<path fill="#4BACD2" opacity="1.000000" stroke="none" 
	d="
M62.242073,132.114716 
	C67.684624,132.233429 72.781883,132.632965 77.881844,132.994293 
	C80.684677,133.192856 83.492081,133.327072 86.639236,133.719971 
	C85.080650,136.031006 83.490028,138.149567 80.087372,138.483673 
	C78.674187,138.622421 77.548439,141.688736 75.575333,143.686020 
	C70.538269,143.970398 66.217850,143.992493 61.897423,144.014587 
	C61.897583,140.136246 61.897747,136.257904 62.242073,132.114716 
z"/>
<path fill="#78C4E1" opacity="1.000000" stroke="none" 
	d="
M232.263336,101.990822 
	C230.997269,100.688164 229.847504,98.444374 228.441925,98.270676 
	C225.089813,97.856400 224.865158,96.028954 225.725098,93.196533 
	C235.855164,92.922310 245.357605,92.958015 254.860046,92.993721 
	C253.830582,94.593636 252.847672,96.226196 251.756592,97.782921 
	C250.910873,98.989601 249.929916,100.101509 248.474991,101.626694 
	C242.715057,101.995506 237.489197,101.993164 232.263336,101.990822 
z"/>
<path fill="#60B6D8" opacity="1.000000" stroke="none" 
	d="
M441.031555,112.297806 
	C445.289520,112.857300 449.266815,113.628998 453.583191,114.595116 
	C455.581604,116.867706 457.240936,118.945885 459.057251,121.318443 
	C457.361450,122.075508 455.515625,122.901260 453.654541,122.937286 
	C446.057892,123.084328 438.456604,122.989906 430.382477,122.976753 
	C431.548035,121.283691 433.145447,119.553902 434.839508,117.924622 
	C436.764893,116.072884 438.776672,114.310982 441.031555,112.297806 
z"/>
<path fill="#60B6D8" opacity="1.000000" stroke="none" 
	d="
M178.284546,111.367523 
	C184.679474,111.003502 190.976395,111.031143 197.756516,111.080414 
	C197.519669,114.789467 196.799637,118.476891 195.537842,122.582092 
	C190.458679,122.995697 185.921265,122.991508 181.383881,122.987320 
	C180.318100,119.244606 179.252335,115.501900 178.284546,111.367523 
z"/>
<path fill="#51ADD1" opacity="1.000000" stroke="none" 
	d="
M133.201508,125.034943 
	C138.489914,125.357216 143.778320,125.679489 149.530945,125.999466 
	C148.636856,129.910492 147.278564,133.823822 145.619659,137.928726 
	C140.203918,137.754044 135.088821,137.387772 129.657669,136.650909 
	C130.628250,132.531876 131.914886,128.783401 133.201508,125.034943 
z"/>
<path fill="#6FBEDD" opacity="1.000000" stroke="none" 
	d="
M413.502014,112.611641 
	C407.915985,113.323479 402.426483,113.662704 396.471375,114.000275 
	C395.702240,110.606628 395.398682,107.214653 395.034058,103.415054 
	C400.515686,102.666710 406.058350,102.325974 412.033325,101.980179 
	C412.843231,105.396423 413.220886,108.817726 413.502014,112.611641 
z"/>
<path fill="#83C9E4" opacity="1.000000" stroke="none" 
	d="
M254.934372,92.561348 
	C245.357605,92.958015 235.855164,92.922310 225.841217,92.845795 
	C225.583054,90.821144 225.836380,88.837318 226.171051,86.425323 
	C235.483063,85.998077 244.713699,85.999008 254.404358,85.999527 
	C254.912491,88.042412 254.960602,90.085693 254.934372,92.561348 
z"/>
<path fill="#3DA1C9" opacity="1.000000" stroke="none" 
	d="
M391.899841,147.427811 
	C399.183167,146.995789 406.372681,146.991272 413.992615,146.979996 
	C414.520081,148.290817 414.652435,149.606934 414.707520,150.926270 
	C414.881165,155.086563 412.785217,156.264618 408.823517,156.005402 
	C405.381226,155.780182 401.792572,155.959930 398.437866,156.713913 
	C394.659058,157.563171 392.650269,156.309692 391.898407,152.822296 
	C391.555939,151.233826 391.818115,149.514999 391.899841,147.427811 
z"/>
<path fill="#64B8DA" opacity="1.000000" stroke="none" 
	d="
M201.228165,111.392792 
	C207.011032,111.238091 212.704086,111.494247 218.791351,111.921608 
	C218.467972,115.767494 217.750397,119.442169 216.503265,123.556213 
	C211.306717,123.311188 206.639740,122.626801 201.972748,121.942406 
	C201.694611,118.562828 201.416473,115.183243 201.228165,111.392792 
z"/>
<path fill="#53B0D4" opacity="1.000000" stroke="none" 
	d="
M201.652435,122.157333 
	C206.639740,122.626801 211.306717,123.311188 216.428329,123.992752 
	C216.879211,127.849968 216.875473,131.710022 216.042358,135.803772 
	C210.915146,136.110504 206.617279,136.183517 202.319412,136.256531 
	C200.857437,131.709000 199.731445,127.137573 201.652435,122.157333 
z"/>
<path fill="#3A9EC6" opacity="1.000000" stroke="none" 
	d="
M115.248337,147.382935 
	C122.488869,146.962433 129.792831,146.982895 137.568024,147.001389 
	C135.330597,155.188614 127.170067,155.070480 121.018303,157.714157 
	C118.649681,158.732071 115.359726,157.241821 115.361328,153.305954 
	C115.362076,151.478592 115.329338,149.651230 115.248337,147.382935 
z"/>
<path fill="#78C4E1" opacity="1.000000" stroke="none" 
	d="
M355.992737,92.447205 
	C361.463501,92.219284 366.844849,92.442223 372.607727,92.829727 
	C372.923798,96.024857 372.858337,99.055428 372.261963,102.533218 
	C366.514709,102.984886 361.298370,102.989311 356.082031,102.993744 
	C356.022430,99.628517 355.962860,96.263290 355.992737,92.447205 
z"/>
<path fill="#5FB4D5" opacity="1.000000" stroke="none" 
	d="
M109.579254,112.293060 
	C114.836739,111.970390 119.960236,111.987968 125.655960,112.439766 
	C125.931396,116.879387 125.634621,120.884789 124.861069,124.915146 
	C120.496948,124.948502 116.609604,124.956902 112.722252,124.965302 
	C113.662636,120.314484 112.197723,116.302826 109.579254,112.293060 
z"/>
<path fill="#6DBBDA" opacity="1.000000" stroke="none" 
	d="
M355.991272,103.424576 
	C361.298370,102.989311 366.514709,102.984886 372.174011,102.978394 
	C372.345581,106.369171 372.074158,109.762009 371.270386,113.570282 
	C366.174103,113.989159 361.610199,113.992592 357.046295,113.996017 
	C356.664398,110.615814 356.282501,107.235603 355.991272,103.424576 
z"/>
<path fill="#64B8DA" opacity="1.000000" stroke="none" 
	d="
M249.855667,110.991379 
	C249.819519,114.567924 249.783371,118.144463 249.076126,121.667831 
	C243.355911,121.406281 238.306793,121.197899 233.257660,120.989525 
	C232.868576,117.934822 232.479477,114.880127 232.626587,111.406738 
	C238.727066,110.989159 244.291367,110.990273 249.855667,110.991379 
z"/>
<path fill="#60B6D8" opacity="1.000000" stroke="none" 
	d="
M356.855957,114.323608 
	C361.610199,113.992592 366.174103,113.989159 371.179565,113.983620 
	C371.344574,117.365723 371.067993,120.749931 370.277649,124.557663 
	C365.524536,125.318718 361.285156,125.656250 357.045807,125.993782 
	C355.636566,122.255913 353.207031,118.552246 356.855957,114.323608 
z"/>
<path fill="#51ADD1" opacity="1.000000" stroke="none" 
	d="
M357.044769,126.347504 
	C361.285156,125.656250 365.524536,125.318718 370.193634,124.979492 
	C371.090240,128.748566 371.557068,132.519318 371.823792,136.640686 
	C367.403290,136.994278 363.182922,136.997299 358.503418,136.998779 
	C357.710785,133.565231 357.377258,130.133224 357.044769,126.347504 
z"/>
<path fill="#60B6D8" opacity="1.000000" stroke="none" 
	d="
M348.764587,124.564735 
	C342.984985,124.781647 337.286896,124.573616 331.426819,123.764969 
	C331.774200,120.466293 332.283569,117.768219 333.223450,115.032341 
	C338.331055,114.659576 343.008118,114.324615 347.685181,113.989655 
	C348.072174,117.373032 348.459137,120.756409 348.764587,124.564735 
z"/>
<path fill="#64B8DA" opacity="1.000000" stroke="none" 
	d="
M278.836365,121.993233 
	C273.915985,121.994705 268.995575,121.996185 263.619385,121.995613 
	C261.860413,118.895035 260.557251,115.796501 259.685913,112.345795 
	C266.357147,111.993202 272.596588,111.992783 278.910706,112.441772 
	C278.935699,115.925201 278.886047,118.959221 278.836365,121.993233 
z"/>
<path fill="#6EBFDE" opacity="1.000000" stroke="none" 
	d="
M278.835999,111.992355 
	C272.596588,111.992783 266.357147,111.993202 259.662659,111.992493 
	C259.566132,108.800194 259.924652,105.609016 260.623199,102.203400 
	C266.283264,102.325058 271.603271,102.661156 277.454285,103.407875 
	C278.268860,106.543114 278.552429,109.267738 278.835999,111.992355 
z"/>
<path fill="#6EBFDE" opacity="1.000000" stroke="none" 
	d="
M310.916992,103.365387 
	C316.055420,103.305771 320.990753,103.616348 326.269226,104.350693 
	C325.984955,107.845222 325.357513,110.915970 324.281464,113.987106 
	C319.262238,113.988953 314.691589,113.990395 310.120972,113.991837 
	C310.318634,110.573090 310.516296,107.154335 310.916992,103.365387 
z"/>
<path fill="#51ADD1" opacity="1.000000" stroke="none" 
	d="
M249.110565,141.567413 
	C244.062973,141.946686 238.952240,141.959671 233.367599,141.965576 
	C233.055817,138.558441 233.217957,135.158356 233.769501,131.375000 
	C239.058777,130.992554 243.958649,130.993393 248.858521,130.994217 
	C248.921494,134.396515 248.984467,137.798828 249.110565,141.567413 
z"/>
<path fill="#41A4CA" opacity="1.000000" stroke="none" 
	d="
M334.135437,139.389267 
	C338.320526,138.985458 342.560303,138.981186 347.244019,138.973785 
	C347.953094,145.302841 347.739044,151.473618 341.894714,156.186676 
	C337.132446,151.572144 334.484283,146.256531 334.135437,139.389267 
z"/>
<path fill="#5FB4D5" opacity="1.000000" stroke="none" 
	d="
M174.956177,116.998207 
	C175.698105,119.702377 176.440048,122.406555 176.740112,125.531715 
	C170.899139,125.957161 165.500031,125.961617 160.100922,125.966064 
	C159.152893,123.242012 158.204865,120.517960 157.795044,117.394669 
	C163.874237,116.996353 169.415207,116.997284 174.956177,116.998207 
z"/>
<path fill="#61B8DA" opacity="1.000000" stroke="none" 
	d="
M310.025879,114.388451 
	C314.691589,113.990395 319.262238,113.988953 324.219299,114.383850 
	C324.733337,117.591721 324.860931,120.403236 324.988495,123.214760 
	C323.116425,123.809998 321.273804,124.765625 319.365845,124.921486 
	C315.951416,125.200417 312.497681,124.997597 308.602173,124.993744 
	C308.739563,121.589249 309.335175,118.187157 310.025879,114.388451 
z"/>
<path fill="#53B0D4" opacity="1.000000" stroke="none" 
	d="
M160.150284,126.382973 
	C165.500031,125.961617 170.899139,125.957161 176.782532,125.932549 
	C177.217804,128.999542 177.168762,132.086700 176.571442,135.586441 
	C171.171753,135.991409 166.320358,135.983780 161.468948,135.976166 
	C161.045853,132.917389 160.622742,129.858643 160.150284,126.382973 
z"/>
<path fill="#6DBBDA" opacity="1.000000" stroke="none" 
	d="
M347.751709,113.608414 
	C343.008118,114.324615 338.331055,114.659576 332.907776,114.826431 
	C331.481781,111.102501 330.802063,107.546692 330.122314,103.990875 
	C334.653503,103.669487 339.184662,103.348099 344.165771,102.950821 
	C345.683228,106.325668 346.750732,109.776421 347.751709,113.608414 
z"/>
<path fill="#56B2D7" opacity="1.000000" stroke="none" 
	d="
M248.930634,130.554581 
	C243.958649,130.993393 239.058777,130.992554 233.709106,130.990860 
	C233.202789,127.924934 233.146255,124.859871 233.173691,121.392166 
	C238.306793,121.197899 243.355911,121.406281 248.734100,121.874893 
	C249.043015,124.795067 249.022873,127.455009 248.930634,130.554581 
z"/>
<path fill="#61B8DA" opacity="1.000000" stroke="none" 
	d="
M103.203529,122.586609 
	C97.555939,122.746422 92.019829,122.488266 86.337303,121.594597 
	C86.431824,118.307693 86.672752,115.656311 87.384331,113.003983 
	C92.267395,113.003609 96.679810,113.004189 101.092216,113.004768 
	C101.833145,116.059387 102.574074,119.114014 103.203529,122.586609 
z"/>
<path fill="#70C0DF" opacity="1.000000" stroke="none" 
	d="
M249.926483,110.581741 
	C244.291367,110.990273 238.727066,110.989159 232.711655,110.987885 
	C232.205612,108.284698 232.150681,105.581688 232.179535,102.434753 
	C237.489197,101.993164 242.715057,101.995506 248.398865,101.996536 
	C249.236969,104.720863 249.617126,107.446487 249.926483,110.581741 
z"/>
<path fill="#53B0D4" opacity="1.000000" stroke="none" 
	d="
M112.584869,125.407532 
	C116.609604,124.956902 120.496948,124.948502 125.170288,125.125793 
	C125.977379,128.874405 125.998474,132.437317 126.019569,136.000244 
	C121.861992,135.998184 117.704407,135.996155 113.128838,135.987030 
	C112.623055,132.603210 112.535271,129.226486 112.584869,125.407532 
z"/>
<path fill="#6EBFDE" opacity="1.000000" stroke="none" 
	d="
M101.204147,112.569916 
	C96.679810,113.004189 92.267395,113.003609 87.279587,112.559540 
	C86.647209,108.810898 86.590233,105.505760 86.533249,102.200623 
	C90.736450,102.139656 94.939644,102.078697 99.617088,102.025345 
	C100.499580,105.400330 100.907829,108.767700 101.204147,112.569916 
z"/>
<path fill="#53B0D4" opacity="1.000000" stroke="none" 
	d="
M396.725403,126.558914 
	C401.315216,126.071526 405.931671,126.027580 410.976685,125.976822 
	C411.511078,129.022629 411.616943,132.075241 411.786224,135.582687 
	C407.113892,136.007980 402.378143,135.978455 397.156067,135.922226 
	C396.697174,132.931137 396.724609,129.966736 396.725403,126.558914 
z"/>
<path fill="#6EBFDE" opacity="1.000000" stroke="none" 
	d="
M67.781898,102.335091 
	C71.999489,101.984589 76.090950,101.995064 80.736267,102.403900 
	C80.331306,106.588081 79.372475,110.373894 78.006035,113.990082 
	C73.369232,113.548233 69.140038,113.276009 64.910851,113.003784 
	C65.825821,109.567886 66.740791,106.131973 67.781898,102.335091 
z"/>
<path fill="#3A9EC6" opacity="1.000000" stroke="none" 
	d="
M61.964577,144.451477 
	C66.217850,143.992493 70.538269,143.970398 75.308136,143.935028 
	C75.337929,148.016891 76.334747,152.321320 70.811272,154.580124 
	C65.643105,156.693634 63.621490,156.314621 62.649475,150.748688 
	C62.312332,148.818161 62.230289,146.843109 61.964577,144.451477 
z"/>
<path fill="#61B8DA" opacity="1.000000" stroke="none" 
	d="
M64.788376,113.423569 
	C69.140038,113.276009 73.369232,113.548233 78.000076,114.360626 
	C78.653435,117.470665 78.905144,120.040535 79.156845,122.610397 
	C74.390022,123.074135 69.623207,123.537872 64.384148,124.002472 
	C64.163239,120.616669 64.414566,117.230011 64.788376,113.423569 
z"/>
<path fill="#6EBFDE" opacity="1.000000" stroke="none" 
	d="
M286.789215,103.074188 
	C291.819946,103.047211 296.850677,103.020241 302.335663,102.992157 
	C302.839630,105.731087 302.889343,108.471130 302.413757,111.601669 
	C296.907623,111.285522 291.926788,110.578865 286.956604,109.447266 
	C286.907898,107.039619 286.848541,105.056900 286.789215,103.074188 
z"/>
<path fill="#3DA1C9" opacity="1.000000" stroke="none" 
	d="
M104.105637,144.966888 
	C104.208328,147.285919 104.946571,149.826355 104.237244,151.862518 
	C103.509232,153.952332 101.644119,156.637695 99.779274,157.113647 
	C96.778145,157.879623 94.075615,156.223099 93.490646,152.493408 
	C93.138237,150.246506 92.476082,148.048203 92.365616,145.419098 
	C96.553955,144.995728 100.329796,144.981308 104.105637,144.966888 
z"/>
<path fill="#46A8CF" opacity="1.000000" stroke="none" 
	d="
M310.924805,139.606079 
	C315.248077,138.771545 319.569336,138.380844 324.341003,137.988113 
	C323.412445,141.555206 322.033478,145.124329 319.892395,148.847382 
	C316.457458,148.996674 313.784698,148.992050 311.111938,148.987427 
	C311.048920,146.008255 310.985870,143.029068 310.924805,139.606079 
z"/>
<path fill="#56B2D7" opacity="1.000000" stroke="none" 
	d="
M181.299042,123.341003 
	C185.921265,122.991508 190.458679,122.995697 195.454819,122.999001 
	C195.892563,127.159180 197.702927,131.900421 191.714386,134.600784 
	C188.867798,134.632004 186.620636,134.423309 184.373474,134.214600 
	C183.320389,130.707962 182.267303,127.201317 181.299042,123.341003 
z"/>
<path fill="#4BACD2" opacity="1.000000" stroke="none" 
	d="
M447.453308,132.386230 
	C452.318237,131.644440 457.272095,131.311905 462.701172,130.968842 
	C462.806366,133.576935 462.436340,136.195541 461.291260,138.956024 
	C455.808105,139.399155 451.099945,139.700378 446.391815,140.001617 
	C446.775299,137.599564 447.158752,135.197510 447.453308,132.386230 
z"/>
<path fill="#64B8DA" opacity="1.000000" stroke="none" 
	d="
M286.945953,109.872208 
	C291.926788,110.578865 296.907623,111.285522 302.339478,111.990707 
	C302.444946,114.207420 302.099396,116.425598 300.953796,118.831360 
	C294.820312,119.011627 289.486847,119.004303 283.992584,118.678406 
	C284.869812,115.530624 285.907898,112.701416 286.945953,109.872208 
z"/>
<path fill="#48AAD1" opacity="1.000000" stroke="none" 
	d="
M161.367905,136.421082 
	C166.320358,135.983780 171.171753,135.991409 176.485184,135.997894 
	C175.408203,139.115189 173.869186,142.233643 171.704376,145.683441 
	C167.862900,145.991882 164.647202,145.968979 161.431519,145.946075 
	C161.376633,142.919388 161.321747,139.892700 161.367905,136.421082 
z"/>
<path fill="#3DA2CA" opacity="1.000000" stroke="none" 
	d="
M283.101379,145.353424 
	C287.084778,144.655090 291.006134,144.323502 295.366211,143.990509 
	C296.859192,145.124680 298.244598,146.094528 298.910339,147.424576 
	C301.788147,153.174118 299.579926,156.091385 293.534363,154.697128 
	C290.817322,152.704041 288.043976,150.781479 285.412750,148.680908 
	C284.448364,147.911011 283.820618,146.719376 283.101379,145.353424 
z"/>
<path fill="#3FA4CC" opacity="1.000000" stroke="none" 
	d="
M264.110962,144.403061 
	C268.087372,143.991074 272.010345,143.992981 276.384247,143.991943 
	C275.808228,147.490677 275.186646,151.197693 273.565155,154.398087 
	C272.866577,155.776855 269.872131,157.020935 268.334656,156.642868 
	C266.933075,156.298203 265.682465,153.809677 265.105072,152.026550 
	C264.367615,149.749084 264.372589,147.231216 264.110962,144.403061 
z"/>
<path fill="#64B8DA" opacity="1.000000" stroke="none" 
	d="
M175.044830,116.567177 
	C169.415207,116.997284 163.874237,116.996353 157.894775,116.995972 
	C157.716064,114.913696 157.975876,112.830887 158.350998,110.360947 
	C163.651459,109.982529 168.836609,109.991234 174.485138,109.998260 
	C175.010193,112.043106 175.071838,114.089630 175.044830,116.567177 
z"/>
<path fill="#48AAD1" opacity="1.000000" stroke="none" 
	d="
M202.518341,136.657440 
	C206.617279,136.183517 210.915146,136.110504 215.693390,136.053040 
	C215.806412,139.092270 215.439041,142.115967 214.546097,145.570068 
	C210.448898,145.991714 206.877258,145.982956 203.305634,145.974182 
	C203.109512,143.002243 202.913391,140.030289 202.518341,136.657440 
z"/>
<path fill="#46A8CF" opacity="1.000000" stroke="none" 
	d="
M446.097229,140.164246 
	C451.099945,139.700378 455.808105,139.399155 461.011597,139.134552 
	C461.108826,140.921158 460.710693,142.671143 460.060852,144.725952 
	C454.010071,145.089951 448.211060,145.149124 442.088715,144.911835 
	C443.111115,143.185883 444.456848,141.756378 446.097229,140.164246 
z"/>
<path fill="#3A9EC6" opacity="1.000000" stroke="none" 
	d="
M203.216629,146.389755 
	C206.877258,145.982956 210.448898,145.991714 214.471680,145.995819 
	C215.792252,150.562988 215.233749,154.694839 210.923538,157.999405 
	C209.029617,153.781357 201.014023,154.058640 203.216629,146.389755 
z"/>
<path fill="#60B6D8" opacity="1.000000" stroke="none" 
	d="
M284.153412,118.996986 
	C289.486847,119.004303 294.820312,119.011627 300.627441,119.027863 
	C299.970428,121.272484 298.839752,123.508202 297.392700,125.882965 
	C292.253815,125.480713 287.431305,124.939415 282.308105,123.795639 
	C282.722748,121.794441 283.438080,120.395714 284.153412,118.996986 
z"/>
<path fill="#3A97BC" opacity="1.000000" stroke="none" 
	d="
M161.342529,146.308441 
	C164.647202,145.968979 167.862900,145.991882 171.526382,146.004089 
	C172.054657,147.143570 172.147690,148.293060 172.213135,149.444122 
	C172.368179,152.171585 172.357788,155.540024 169.102219,155.658752 
	C167.159485,155.729614 164.842575,153.349411 163.216110,151.588638 
	C162.097839,150.378021 161.876038,148.339355 161.342529,146.308441 
z"/>
<path fill="#4BACD2" opacity="1.000000" stroke="none" 
	d="
M88.947464,134.741653 
	C91.409744,133.971878 94.001343,133.442337 96.609703,133.015045 
	C98.501503,132.705139 100.415489,132.530670 102.707306,132.130920 
	C103.503006,134.041718 103.910988,136.117386 103.735825,138.597092 
	C99.045128,138.984970 94.937584,138.968811 90.830040,138.952652 
	C90.248016,137.643661 89.665993,136.334686 88.947464,134.741653 
z"/>
<path fill="#48AAD1" opacity="1.000000" stroke="none" 
	d="
M90.705734,139.225189 
	C94.937584,138.968811 99.045128,138.984970 103.623856,139.001389 
	C104.167549,140.711838 104.240059,142.422028 104.209099,144.549561 
	C100.329796,144.981308 96.553955,144.995728 92.304291,145.012054 
	C91.414124,143.175217 90.997780,141.336487 90.705734,139.225189 
z"/>
<path fill="#3A9EC6" opacity="1.000000" stroke="none" 
	d="
M311.029541,149.385986 
	C313.784698,148.992050 316.457458,148.996674 319.578003,149.004791 
	C319.763763,149.763321 319.495422,150.516220 319.240906,151.273773 
	C318.503326,153.469315 318.580994,156.437134 314.959198,155.959259 
	C311.250031,155.469864 311.061584,152.638550 311.029541,149.385986 
z"/>
<path fill="#45A4C9" opacity="1.000000" stroke="none" 
	d="
M184.311981,134.628021 
	C186.620636,134.423309 188.867798,134.632004 191.518570,134.915344 
	C190.863571,137.634674 189.804977,140.279373 188.746384,142.924088 
	C187.247757,140.296539 185.749115,137.668991 184.311981,134.628021 
z"/>
<path fill="#78C4E1" opacity="1.000000" stroke="none" 
	d="
M144.976013,89.700516 
	C144.682922,89.843048 144.450363,89.645920 144.130035,89.211876 
	C144.336029,89.148056 144.667435,89.276680 144.976013,89.700516 
z"/>
<path fill="#030506" opacity="1.000000" stroke="none" 
	d="
M330.032593,103.642273 
	C330.802063,107.546692 331.481781,111.102501 332.477234,114.864227 
	C332.283569,117.768219 331.774200,120.466293 331.101807,123.497192 
	C329.205170,123.671501 327.471588,123.513000 325.363251,123.284630 
	C324.860931,120.403236 324.733337,117.591721 324.667908,114.383453 
	C325.357513,110.915970 325.984955,107.845222 326.671173,104.381805 
	C326.892883,103.085632 327.055756,102.182121 327.398346,100.281677 
	C328.571716,101.670631 329.257263,102.482147 330.032593,103.642273 
z"/>
<path fill="#060B0E" opacity="1.000000" stroke="none" 
	d="
M126.135849,136.302979 
	C125.998474,132.437317 125.977379,128.874405 125.647057,125.100838 
	C125.634621,120.884789 125.931396,116.879387 126.123482,112.437424 
	C126.215958,109.627663 126.413132,107.254463 126.610298,104.881264 
	C127.045525,104.645920 127.480751,104.410568 127.915977,104.175224 
	C130.137497,106.978706 132.359024,109.782181 134.879730,112.772324 
	C134.562653,116.740898 133.946411,120.522820 133.265839,124.669838 
	C131.914886,128.783401 130.628250,132.531876 129.264755,136.657043 
	C128.209305,136.891068 127.230713,136.748383 126.135849,136.302979 
z"/>
<path fill="#0D171B" opacity="1.000000" stroke="none" 
	d="
M79.527969,122.591957 
	C78.905144,120.040535 78.653435,117.470665 78.407692,114.530258 
	C79.372475,110.373894 80.331306,106.588081 81.208328,102.406113 
	C82.735718,101.973137 84.344917,101.936325 86.243683,102.050064 
	C86.590233,105.505760 86.647209,108.810898 86.808929,112.560486 
	C86.672752,115.656311 86.431824,118.307693 86.022827,121.299500 
	C83.869537,121.951118 81.884323,122.262314 79.527969,122.591957 
z"/>
<path fill="#000001" opacity="1.000000" stroke="none" 
	d="
M283.992584,118.678406 
	C283.438080,120.395714 282.722748,121.794441 281.981720,123.538925 
	C280.970428,123.498291 279.984833,123.111900 278.917786,122.359375 
	C278.886047,118.959221 278.935699,115.925201 278.910706,112.441772 
	C278.552429,109.267738 278.268860,106.543114 277.910492,103.406097 
	C279.070343,101.734947 280.391602,99.387154 281.519012,99.476799 
	C283.144836,99.606079 284.629883,101.505127 286.482117,102.861572 
	C286.848541,105.056900 286.907898,107.039619 286.956604,109.447266 
	C285.907898,112.701416 284.869812,115.530624 283.992584,118.678406 
z"/>
</svg>